<svg height="24" viewBox="0 0 24 24" width="24" xmlns="http://www.w3.org/2000/svg" xmlns:xlink="http://www.w3.org/1999/xlink"><defs><path id="a" d="m2.977 8.161 5.292 1.08-8.051 9.278 1.664 1.085 10.246-11.443-6.235-1.352 2.928-5.811-1.434-.813z"/><path id="b" d="m10.2577032 5.88540233 3.1106581.58289487c1.5266227.28606828 2.1587626 2.12720591 1.1298361 3.29070165l-9.34387056 10.56591795c-1.52581175 1.7253666-4.27896406-.0709918-3.31435053-2.1625252l3.07667709-6.6710373-2.28641501-.4301293c-1.35600905-.2550977-2.05247869-1.77424375-1.36077623-2.96813784l4.11101394-7.09570312c.357659-.61732754 1.0170862-.99738404 1.73053785-.99738404h3.08397265c1.5403969 0 2.5025474 1.66821829 1.7311545 3.00155082zm-.0627166-3.88540233h-3.08397265l-4.11101395 7.09570312 4.80692226.90429688-4.15079281 9 9.34387055-10.56591797-5.88898605-1.10351562z"/><mask id="c" fill="#fff"><use fill="#fff" fill-rule="evenodd" xlink:href="#a"/></mask><mask id="d" fill="#fff"><use fill="#fff" fill-rule="evenodd" xlink:href="#b"/></mask></defs><g fill="none" fill-rule="evenodd" transform="translate(4 2)"><g transform="translate(2)"><use fill="#d8d8d8" xlink:href="#a"/><g fill="#ffa0a0" mask="url(#c)"><path d="m0 0h24v24h-24z" transform="translate(-6 -2)"/></g></g><use fill="#000" fill-rule="nonzero" xlink:href="#b"/><g fill="#7600ff" mask="url(#d)"><path d="m0 0h24v24h-24z" transform="translate(-4 -2)"/></g></g></svg>