<?xml version="1.0" standalone="no"?>
<!DOCTYPE svg PUBLIC "-//W3C//DTD SVG 20010904//EN"
 "http://www.w3.org/TR/2001/REC-SVG-20010904/DTD/svg10.dtd">
<svg version="1.0" xmlns="http://www.w3.org/2000/svg"
 width="700.000000pt" height="700.000000pt" viewBox="0 0 700.000000 700.000000"
 preserveAspectRatio="xMidYMid meet">
<metadata>
Created by potrace 1.14, written by Peter Selinger 2001-2017
</metadata>
<g transform="translate(0.000000,700.000000) scale(0.100000,-0.100000)"
fill="#000000" stroke="none">
<path d="M3116 6404 c-108 -24 -216 -84 -302 -171 -35 -35 -72 -92 -179 -278
-54 -93 -137 -237 -185 -320 -48 -82 -219 -377 -380 -655 -161 -278 -351 -606
-423 -730 -168 -289 -188 -342 -189 -490 0 -292 208 -525 517 -580 33 -5 69
-12 80 -14 162 -31 523 -99 532 -99 7 0 11 -3 9 -6 -1 -3 -10 -22 -18 -41 -34
-75 -77 -168 -113 -245 -33 -71 -100 -217 -177 -385 -41 -87 -442 -957 -483
-1045 -146 -316 -158 -352 -158 -485 0 -108 20 -180 77 -277 136 -229 419
-346 666 -277 148 42 208 95 550 484 118 135 231 263 251 285 20 22 90 101
156 176 66 75 134 151 150 170 51 57 342 386 463 524 62 72 126 144 141 160
15 17 89 100 165 185 75 85 151 171 168 190 17 19 63 71 101 115 39 44 126
143 195 220 68 77 136 154 151 170 14 17 102 116 194 220 92 105 194 219 225
255 127 144 153 178 184 245 19 39 39 92 45 120 16 62 15 199 0 262 -30 122
-111 253 -201 324 -98 77 -171 105 -383 144 -77 14 -174 32 -215 41 -137 26
-554 104 -562 104 -4 0 0 13 10 29 9 17 42 74 73 128 31 54 138 239 239 412
198 344 230 417 233 535 5 211 -68 367 -233 498 -54 43 -84 58 -170 89 -65 23
-69 23 -600 26 -446 2 -546 -1 -604 -13z m380 -776 c-62 -112 -128 -232 -148
-268 -148 -271 -303 -550 -318 -575 -10 -16 -32 -57 -50 -90 -18 -33 -65 -118
-105 -190 -40 -71 -89 -161 -110 -200 -21 -38 -62 -114 -92 -168 -30 -54 -53
-100 -51 -102 1 -2 39 -10 83 -19 44 -8 269 -54 500 -101 570 -117 745 -152
845 -171 47 -9 89 -20 94 -25 5 -4 -24 -45 -65 -91 -41 -46 -97 -111 -125
-143 -29 -33 -202 -233 -386 -445 -183 -212 -409 -473 -502 -580 -170 -196
-213 -243 -204 -225 211 445 578 1258 571 1264 -4 4 -317 66 -696 136 -561
106 -687 132 -682 144 3 8 97 172 209 365 112 193 360 621 551 951 191 330
365 630 387 668 l39 67 184 0 183 0 -112 -202z"/>
</g>
</svg>
